# xmcd
#
# Track frame offsets: 
#        150
#        14320
#        31035
#        41471
#        60767
#        73888
#        95658
#        110609
#        123758
#        139192
#        150305
#        167179
#
# Disc length: 2440 seconds
#
# Revision: 0
# Processed by: cddbd v1.5PL3 Copyright (c) Steve Scherf et al.
# Submitted via: ExactAudioCopy v0.95a4
#
DISCID=9209860c
DTITLE=Matis - Beautiful Life
DYEAR=2004
DGENRE=Country
TTITLE0=Walking in Jerusalem
TTITLE1=Hickory Wind
TTITLE2=Scotland
TTITLE3=Feels like Home
TTITLE4=Beautiful Life
TTITLE5=Mr Bojangles
TTITLE6=You Gotta Move
TTITLE7=Penny Lane
TTITLE8=Kathy's Song
TTITLE9=Museum Rag
TTITLE10=Kansas City
TTITLE11=Irish Land
EXTD=
EXTT0=
EXTT1=
EXTT2=
EXTT3=
EXTT4=
EXTT5=
EXTT6=
EXTT7=
EXTT8=
EXTT9=
EXTT10=
EXTT11=
PLAYORDER=
